<svg xmlns="http://www.w3.org/2000/svg" viewBox="0 0 67 24" color="white">
  <g id="symbol">
    <path
      d="M34.592,6.358L21.209,6.358L24.351,3.247L34.592,3.247C35.916,3.247 36.552,4.982 35.581,5.943C35.312,6.209 34.959,6.358 34.592,6.358Z"
      fill="currentColor" />
    <path
      d="M29.703,12.583L14.953,12.583L18.072,9.473L29.703,9.473C31.016,9.473 31.647,11.208 30.684,12.169C30.417,12.435 30.067,12.583 29.703,12.583Z"
      fill="currentColor" />
    <path
      d="M23.73,18.803L13.102,18.803C11.478,18.803 10.667,16.837 11.82,15.693L23.73,15.693C25.049,15.693 25.684,17.428 24.716,18.389C24.447,18.655 24.095,18.803 23.73,18.803Z"
      fill="currentColor" />
    <path
      d="M1.569,12.581L14.952,12.581L11.81,15.692L1.569,15.692C0.245,15.692 -0.391,13.957 0.58,12.996C0.849,12.73 1.202,12.581 1.569,12.581Z"
      fill="currentColor" />
    <path
      d="M6.463,6.359L21.212,6.359L18.094,9.469L6.463,9.469C5.149,9.469 4.518,7.734 5.481,6.773C5.748,6.507 6.099,6.359 6.463,6.359Z"
      fill="currentColor" />
    <path
      d="M12.466,0.136L23.094,0.136C24.718,0.136 25.528,2.102 24.375,3.246L12.466,3.246C11.146,3.246 10.512,1.511 11.48,0.55C11.748,0.284 12.1,0.136 12.466,0.136Z"
      fill="currentColor" />
  </g>
  <g id="text" transform="translate(36, 0)">
    <path
      d="M27.259,3.909C26.205,3.909 25.287,3.026 25.287,1.938C25.287,0.85 26.205,0 27.259,0C28.347,0 29.231,0.85 29.231,1.938C29.231,3.026 28.347,3.909 27.259,3.909ZM27.259,23.762C26.443,23.762 25.763,23.082 25.763,22.232L25.763,8.533C25.763,7.683 26.443,7.003 27.293,7.003C28.109,7.003 28.823,7.683 28.823,8.533L28.823,22.232C28.823,23.082 28.109,23.762 27.259,23.762Z"
      fill="currentColor" />
    <path
      d="M20.548,23.762C19.698,23.762 19.019,23.082 19.019,22.232L19.019,2.278C19.019,1.428 19.698,0.748 20.548,0.748C21.364,0.748 22.078,1.428 22.078,2.278L22.078,22.232C22.078,23.082 21.364,23.762 20.548,23.762Z"
      fill="currentColor" />
    <path
      d="M0.166,15.366C0.166,10.606 3.599,6.765 8.393,6.765C13.322,6.765 16.381,10.606 16.381,14.924C16.381,15.841 15.735,16.385 14.58,16.385L3.395,16.385C3.633,19.173 5.673,21.485 8.971,21.485C10.364,21.485 11.826,21.043 13.05,20.159C13.22,20.023 13.458,19.989 13.73,19.989C14.41,19.989 14.954,20.533 14.954,21.212C14.954,21.654 14.75,21.994 14.41,22.232C12.778,23.422 10.84,24 8.665,24C3.769,24 0.166,20.533 0.166,15.366ZM8.393,9.28C5.095,9.28 3.531,11.932 3.361,14.176L13.39,14.176C13.322,12 11.86,9.28 8.393,9.28Z"
      fill="currentColor" />
  </g>
</svg>